<svg width="10" height="20" viewBox="0 0 10 20" fill="none" xmlns="http://www.w3.org/2000/svg">
<path fill-rule="evenodd" clip-rule="evenodd" d="M9.41375 0.217397C9.4777 0.286134 9.52843 0.367792 9.56305 0.457692C9.59766 0.547592 9.61548 0.643969 9.61548 0.741302C9.61548 0.838635 9.59766 0.935011 9.56305 1.02491C9.52843 1.11481 9.4777 1.19647 9.41375 1.26521L1.65886 9.62105L9.41375 17.9769C9.47759 18.0457 9.52823 18.1274 9.56278 18.2173C9.59734 18.3072 9.61512 18.4035 9.61512 18.5008C9.61512 18.5981 9.59734 18.6944 9.56278 18.7843C9.52823 18.8742 9.47759 18.9559 9.41375 19.0247C9.34991 19.0935 9.27412 19.1481 9.19071 19.1853C9.1073 19.2225 9.0179 19.2417 8.92761 19.2417C8.83733 19.2417 8.74793 19.2225 8.66452 19.1853C8.5811 19.1481 8.50531 19.0935 8.44147 19.0247L0.201817 10.145C0.137873 10.0762 0.0871406 9.99456 0.0525251 9.90466C0.0179096 9.81476 9.20818e-05 9.71838 9.20861e-05 9.62105C9.20904e-05 9.52371 0.0179096 9.42734 0.0525251 9.33744C0.0871406 9.24754 0.137873 9.16588 0.201817 9.09714L8.44147 0.217397C8.50526 0.148485 8.58103 0.0938112 8.66445 0.0565067C8.74787 0.0192022 8.8373 -3.40348e-08 8.92761 -3.00846e-08C9.01793 -2.61345e-08 9.10736 0.0192022 9.19078 0.0565067C9.2742 0.0938112 9.34997 0.148485 9.41375 0.217397Z" fill="black"/>
</svg>
