<svg width="20" height="20" viewBox="0 0 20 20" fill="none" xmlns="http://www.w3.org/2000/svg">
<path fill-rule="evenodd" clip-rule="evenodd" d="M15.8333 3.33335H15V1.66669H13.3333V3.33335H6.66667V1.66669H5V3.33335H4.16667C3.24167 3.33335 2.5 4.08335 2.5 5.00002V16.6667C2.5 17.5834 3.24167 18.3334 4.16667 18.3334H15.8333C16.75 18.3334 17.5 17.5834 17.5 16.6667V5.00002C17.5 4.08335 16.75 3.33335 15.8333 3.33335ZM15.8333 16.6667H4.16667V7.50002H15.8333V16.6667ZM5.41667 10.8334C5.41667 9.68335 6.35 8.75002 7.5 8.75002C8.65 8.75002 9.58333 9.68335 9.58333 10.8334C9.58333 11.9834 8.65 12.9167 7.5 12.9167C6.35 12.9167 5.41667 11.9834 5.41667 10.8334Z" fill="#49454F" fill-opacity="0.7"/>
</svg>
