<svg width="35" height="36" viewBox="0 0 35 36" fill="none" xmlns="http://www.w3.org/2000/svg">
<g filter="url(#filter0_d_431_9174)">
<path d="M10.9604 5.61295C10.5238 5.15734 9.81586 5.15734 9.37923 5.61295C8.9426 6.06856 8.9426 6.80725 9.37923 7.26286L15.8357 14.0001L9.3793 20.7372C8.94267 21.1928 8.94267 21.9315 9.3793 22.3871C9.81592 22.8427 10.5238 22.8427 10.9605 22.3871L17.4169 15.65L23.8733 22.3871C24.3099 22.8427 25.0178 22.8427 25.4545 22.3871C25.8911 21.9315 25.8911 21.1928 25.4545 20.7372L18.998 14.0001L25.4545 7.26286C25.8911 6.80725 25.8911 6.06856 25.4545 5.61295C25.0179 5.15734 24.31 5.15734 23.8733 5.61295L17.4169 12.3501L10.9604 5.61295Z" fill="white"/>
<rect x="4.5" y="0.5" width="25.8333" height="27" stroke="black" shape-rendering="crispEdges"/>
</g>
<defs>
<filter id="filter0_d_431_9174" x="0" y="0" width="34.8335" height="36" filterUnits="userSpaceOnUse" color-interpolation-filters="sRGB">
<feFlood flood-opacity="0" result="BackgroundImageFix"/>
<feColorMatrix in="SourceAlpha" type="matrix" values="0 0 0 0 0 0 0 0 0 0 0 0 0 0 0 0 0 0 127 0" result="hardAlpha"/>
<feOffset dy="4"/>
<feGaussianBlur stdDeviation="2"/>
<feComposite in2="hardAlpha" operator="out"/>
<feColorMatrix type="matrix" values="0 0 0 0 0 0 0 0 0 0 0 0 0 0 0 0 0 0 0.25 0"/>
<feBlend mode="normal" in2="BackgroundImageFix" result="effect1_dropShadow_431_9174"/>
<feBlend mode="normal" in="SourceGraphic" in2="effect1_dropShadow_431_9174" result="shape"/>
</filter>
</defs>
</svg>
