<svg width="43" height="49" viewBox="0 0 71 49" fill="none" xmlns="http://www.w3.org/2000/svg">
<rect width="71" height="64" rx="20" fill="black" fill-opacity="0.8"/>
<path fill-rule="evenodd" clip-rule="evenodd" d="M20.1875 31.5C20.1875 35.5611 21.8008 39.4559 24.6724 42.3276C27.5441 45.1992 31.4389 46.8125 35.5 46.8125C39.5611 46.8125 43.4559 45.1992 46.3276 42.3276C49.1992 39.4559 50.8125 35.5611 50.8125 31.5C50.8125 27.4389 49.1992 23.5441 46.3276 20.6724C43.4559 17.8008 39.5611 16.1875 35.5 16.1875C31.4389 16.1875 27.5441 17.8008 24.6724 20.6724C21.8008 23.5441 20.1875 27.4389 20.1875 31.5ZM53 31.5C53 36.1413 51.1563 40.5925 47.8744 43.8744C44.5925 47.1563 40.1413 49 35.5 49C30.8587 49 26.4075 47.1563 23.1256 43.8744C19.8437 40.5925 18 36.1413 18 31.5C18 26.8587 19.8437 22.4075 23.1256 19.1256C26.4075 15.8437 30.8587 14 35.5 14C40.1413 14 44.5925 15.8437 47.8744 19.1256C51.1563 22.4075 53 26.8587 53 31.5ZM27.8438 30.4062C27.5537 30.4062 27.2755 30.5215 27.0704 30.7266C26.8652 30.9317 26.75 31.2099 26.75 31.5C26.75 31.7901 26.8652 32.0683 27.0704 32.2734C27.2755 32.4785 27.5537 32.5938 27.8438 32.5938H40.5159L35.8194 37.2881C35.7177 37.3898 35.637 37.5105 35.582 37.6434C35.5269 37.7763 35.4986 37.9187 35.4986 38.0625C35.4986 38.2063 35.5269 38.3487 35.582 38.4816C35.637 38.6145 35.7177 38.7352 35.8194 38.8369C35.9211 38.9386 36.0418 39.0192 36.1747 39.0743C36.3075 39.1293 36.4499 39.1576 36.5938 39.1576C36.7376 39.1576 36.88 39.1293 37.0128 39.0743C37.1457 39.0192 37.2664 38.9386 37.3681 38.8369L43.9306 32.2744C44.0325 32.1728 44.1133 32.0521 44.1684 31.9192C44.2236 31.7863 44.252 31.6439 44.252 31.5C44.252 31.3561 44.2236 31.2137 44.1684 31.0808C44.1133 30.9479 44.0325 30.8272 43.9306 30.7256L37.3681 24.1631C37.2664 24.0614 37.1457 23.9808 37.0128 23.9257C36.88 23.8707 36.7376 23.8424 36.5938 23.8424C36.4499 23.8424 36.3075 23.8707 36.1747 23.9257C36.0418 23.9808 35.9211 24.0614 35.8194 24.1631C35.7177 24.2648 35.637 24.3855 35.582 24.5184C35.5269 24.6513 35.4986 24.7937 35.4986 24.9375C35.4986 25.0813 35.5269 25.2237 35.582 25.3566C35.637 25.4895 35.7177 25.6102 35.8194 25.7119L40.5159 30.4062H27.8438Z" fill="white"/>
</svg>
