<svg width="30" height="30" viewBox="0 0 30 30" fill="none" xmlns="http://www.w3.org/2000/svg">
<path fill-rule="evenodd" clip-rule="evenodd" d="M15.0153 6.96467L13.6565 5.60593C10.9717 2.92107 6.61866 2.92107 3.93381 5.60593C1.24895 8.29078 1.24895 12.6438 3.93381 15.3286L14.9824 26.3772L14.9846 26.3749L15.0175 26.4079L26.0661 15.3593C28.7509 12.6745 28.7509 8.32145 26.0661 5.6366C23.3812 2.95174 19.0282 2.95174 16.3433 5.6366L15.0153 6.96467ZM14.9846 22.8394L21.1549 16.6691L22.9684 14.9178L22.9702 14.9196L24.2983 13.5915C26.0068 11.883 26.0068 9.11291 24.2983 7.40436C22.5898 5.69582 19.8197 5.69582 18.1111 7.40436L15.0166 10.4989L15.0076 10.4898L15.0062 10.4912L11.8888 7.37369C10.1802 5.66515 7.41012 5.66515 5.70157 7.37369C3.99303 9.08224 3.99303 11.8523 5.70157 13.5609L8.87586 16.7352L8.87811 16.7329L14.9846 22.8394Z" fill="black" fill-opacity="0.98"/>
</svg>
