<svg width="20" height="20" viewBox="0 0 20 20" fill="none" xmlns="http://www.w3.org/2000/svg">
<g clip-path="url(#clip0_349_3249)">
<path d="M14.9999 6.66667H14.1666V5C14.1666 2.7 12.2999 0.833334 9.99992 0.833334C7.69992 0.833334 5.83325 2.7 5.83325 5V6.66667H4.99992C4.08325 6.66667 3.33325 7.41667 3.33325 8.33333V16.6667C3.33325 17.5833 4.08325 18.3333 4.99992 18.3333H14.9999C15.9166 18.3333 16.6666 17.5833 16.6666 16.6667V8.33333C16.6666 7.41667 15.9166 6.66667 14.9999 6.66667ZM9.99992 14.1667C9.08325 14.1667 8.33325 13.4167 8.33325 12.5C8.33325 11.5833 9.08325 10.8333 9.99992 10.8333C10.9166 10.8333 11.6666 11.5833 11.6666 12.5C11.6666 13.4167 10.9166 14.1667 9.99992 14.1667ZM12.5833 6.66667H7.41658V5C7.41658 3.575 8.57492 2.41667 9.99992 2.41667C11.4249 2.41667 12.5833 3.575 12.5833 5V6.66667Z" fill="white"/>
</g>
<defs>
<clipPath id="clip0_349_3249">
<rect width="20" height="20" fill="white"/>
</clipPath>
</defs>
</svg>
