<svg width="26" height="30" viewBox="0 0 24 24" fill="none" xmlns="http://www.w3.org/2000/svg">
    <g filter="url(#filter0_d)">
        <path d="M12 24C10.34 24 8.78 23.685 7.32 23.055C5.86 22.425 4.59 21.57 3.51 20.49C2.43 19.41 1.575 18.14 0.945 16.68C0.315 15.22 0 13.66 0 12C0 10.34 0.315 8.78 0.945 7.32C1.575 5.86 2.43 4.59 3.51 3.51C4.59 2.43 5.86 1.575 7.32 0.945C8.78 0.315 10.34 0 12 0C13.66 0 15.22 0.315 16.68 0.945C18.14 1.575 19.41 2.43 20.49 3.51C21.57 4.59 22.425 5.86 23.055 7.32C23.685 8.78 24 10.34 24 12C24 13.66 23.685 15.22 23.055 16.68C22.425 18.14 21.57 19.41 20.49 20.49C19.41 21.57 18.14 22.425 16.68 23.055C15.22 23.685 13.66 24 12 24ZM12 21.6C14.66 21.6 16.925 20.665 18.795 18.795C20.665 16.925 21.6 14.66 21.6 12C21.6 9.34 20.665 7.075 18.795 5.205C16.925 3.335 14.66 2.4 12 2.4C9.34 2.4 7.075 3.335 5.205 5.205C3.335 7.075 2.4 9.34 2.4 12C2.4 14.66 3.335 16.925 5.205 18.795C7.075 20.665 9.34 21.6 12 21.6ZM13.8 10.68L14.4 10.32C14.44 10.8 14.63 11.2 14.97 11.52C15.31 11.84 15.72 12 16.2 12C16.7 12 17.125 11.825 17.475 11.475C17.825 11.125 18 10.7 18 10.2C18 9.9 17.93 9.615 17.79 9.345C17.65 9.075 17.46 8.86 17.22 8.7L18 8.25L17.4 7.2L13.2 9.6L13.8 10.68ZM10.2 10.68L10.8 9.6L6.6 7.2L6 8.25L6.78 8.7C6.54 8.86 6.35 9.075 6.21 9.345C6.07 9.615 6 9.9 6 10.2C6 10.7 6.175 11.125 6.525 11.475C6.875 11.825 7.3 12 7.8 12C8.28 12 8.69 11.84 9.03 11.52C9.37 11.2 9.56 10.8 9.6 10.32L10.2 10.68ZM12 13.2C10.58 13.2 9.33 13.655 8.25 14.565C7.17 15.475 6.41 16.62 5.97 18H18.03C17.59 16.62 16.83 15.475 15.75 14.565C14.67 13.655 13.42 13.2 12 13.2Z" fill="white"/>
    </g>
    <defs>
        <filter id="filter0_d" x="-4" y="0" width="32" height="32" filterUnits="userSpaceOnUse" color-interpolation-filters="sRGB">
            <feFlood flood-opacity="0" result="BackgroundImageFix"/>
            <feColorMatrix in="SourceAlpha" type="matrix" values="0 0 0 0 0 0 0 0 0 0 0 0 0 0 0 0 0 0 127 0" result="hardAlpha"/>
            <feOffset dy="4"/>
            <feGaussianBlur stdDeviation="2"/>
            <feComposite in2="hardAlpha" operator="out"/>
            <feColorMatrix type="matrix" values="0 0 0 0 0 0 0 0 0 0 0 0 0 0 0 0 0 0 0.25 0"/>
            <feBlend mode="normal" in2="BackgroundImageFix" result="effect1_dropShadow"/>
            <feBlend mode="normal" in="SourceGraphic" in2="effect1_dropShadow" result="shape"/>
        </filter>
    </defs>
</svg>
