<svg width="103" height="100" viewBox="0 0 103 100" fill="none" xmlns="http://www.w3.org/2000/svg">
<path d="M38.6249 45.8333C40.9951 45.8333 42.9166 43.9679 42.9166 41.6667C42.9166 39.3655 40.9951 37.5 38.6249 37.5C36.2547 37.5 34.3333 39.3655 34.3333 41.6667C34.3333 43.9679 36.2547 45.8333 38.6249 45.8333Z" fill="black"/>
<path d="M60.0833 70.8333C60.0833 66.231 56.2404 62.5 51.4999 62.5C46.7595 62.5 42.9166 66.231 42.9166 70.8333H34.3333C34.3333 61.6286 42.019 54.1667 51.4999 54.1667C60.9808 54.1667 68.6666 61.6286 68.6666 70.8333H60.0833Z" fill="black"/>
<path d="M68.6666 41.6667C68.6666 43.9679 66.7451 45.8333 64.3749 45.8333C62.0047 45.8333 60.0833 43.9679 60.0833 41.6667C60.0833 39.3655 62.0047 37.5 64.3749 37.5C66.7451 37.5 68.6666 39.3655 68.6666 41.6667Z" fill="black"/>
<path fill-rule="evenodd" clip-rule="evenodd" d="M94.4166 50C94.4166 73.0119 75.2021 91.6667 51.4999 91.6667C27.7977 91.6667 8.58325 73.0119 8.58325 50C8.58325 26.9881 27.7977 8.33334 51.4999 8.33334C75.2021 8.33334 94.4166 26.9881 94.4166 50ZM85.8333 50C85.8333 68.4095 70.4617 83.3333 51.4999 83.3333C32.5381 83.3333 17.1666 68.4095 17.1666 50C17.1666 31.5905 32.5381 16.6667 51.4999 16.6667C70.4617 16.6667 85.8333 31.5905 85.8333 50Z" fill="black"/>
</svg>
