<svg width="28" height="20" viewBox="0 0 28 20" fill="none" xmlns="http://www.w3.org/2000/svg">
<path d="M4.74939 8.19775C6.2367 8.19775 7.44593 6.97236 7.44593 5.46517C7.44593 3.95798 6.2367 2.73258 4.74939 2.73258C3.26208 2.73258 2.05286 3.95798 2.05286 5.46517C2.05286 6.97236 3.26208 8.19775 4.74939 8.19775ZM23.6251 8.19775C25.1124 8.19775 26.3217 6.97236 26.3217 5.46517C26.3217 3.95798 25.1124 2.73258 23.6251 2.73258C22.1378 2.73258 20.9286 3.95798 20.9286 5.46517C20.9286 6.97236 22.1378 8.19775 23.6251 8.19775ZM24.9734 9.56404H22.2769C21.5353 9.56404 20.8654 9.86719 20.3766 10.3582C22.0746 11.3018 23.2796 13.0054 23.5409 15.0292H26.3217C27.0674 15.0292 27.6699 14.4187 27.6699 13.6629V12.2966C27.6699 10.7894 26.4607 9.56404 24.9734 9.56404ZM14.1873 9.56404C16.7953 9.56404 18.9062 7.42494 18.9062 4.78202C18.9062 2.1391 16.7953 0 14.1873 0C11.5792 0 9.46833 2.1391 9.46833 4.78202C9.46833 7.42494 11.5792 9.56404 14.1873 9.56404ZM17.4231 10.9303H17.0734C16.197 11.3573 15.2237 11.6135 14.1873 11.6135C13.1508 11.6135 12.1817 11.3573 11.3011 10.9303H10.9514C8.27174 10.9303 6.09766 13.1335 6.09766 15.849V17.0786C6.09766 18.2101 7.00352 19.1281 8.12006 19.1281H20.2545C21.371 19.1281 22.2769 18.2101 22.2769 17.0786V15.849C22.2769 13.1335 20.1028 10.9303 17.4231 10.9303ZM7.99787 10.3582C7.50913 9.86719 6.83921 9.56404 6.09766 9.56404H3.40112C1.91382 9.56404 0.70459 10.7894 0.70459 12.2966V13.6629C0.70459 14.4187 1.3071 15.0292 2.05286 15.0292H4.82944C5.09488 13.0054 6.2999 11.3018 7.99787 10.3582Z"/>
</svg>
