<svg width="76" height="76" viewBox="0 0 76 76" fill="none" xmlns="http://www.w3.org/2000/svg">
<path d="M0.5 8.83333V67.1667C0.5 69.3768 1.37797 71.4964 2.94078 73.0592C4.50358 74.622 6.6232 75.5 8.83333 75.5H67.1667C71.75 75.5 75.5 71.75 75.5 67.1667V8.83333C75.5 4.25 71.75 0.5 67.1667 0.5H8.83333C6.6232 0.5 4.50358 1.37797 2.94078 2.94078C1.37797 4.50358 0.5 6.6232 0.5 8.83333V8.83333ZM50.5 25.5C50.5 32.4167 44.9167 38 38 38C31.0833 38 25.5 32.4167 25.5 25.5C25.5 18.5833 31.0833 13 38 13C44.9167 13 50.5 18.5833 50.5 25.5ZM13 58.8333C13 50.5 29.6667 45.9167 38 45.9167C46.3333 45.9167 63 50.5 63 58.8333V63H13V58.8333Z" fill="black"/>
</svg>
