<svg width="35" height="33" viewBox="0 0 35 33" fill="none" xmlns="http://www.w3.org/2000/svg">
<path d="M29.7277 3.91827C28.0191 2.32363 25.249 2.32363 23.5405 3.91827L20.4461 6.80634L19.4148 5.84376C18.8453 5.31221 17.9219 5.31221 17.3524 5.84376C16.7829 6.37531 16.7829 7.23711 17.3524 7.76866L25.602 15.4683C26.1715 15.9998 27.0949 15.9998 27.6644 15.4683C28.2339 14.9367 28.2339 14.0749 27.6644 13.5434L26.6333 12.581L29.7277 9.69298C31.4362 8.09833 31.4362 5.51291 29.7277 3.91827Z" fill="black"/>
<path fill-rule="evenodd" clip-rule="evenodd" d="M17.3974 9.65193L6.05419 20.2389C4.70722 21.4961 4.42217 23.369 5.19903 24.8868L2.9165 27.0172L4.9789 28.9421L7.26142 26.8117C8.88765 27.5368 10.8944 27.2708 12.2414 26.0136L23.5845 15.4266L17.3974 9.65193ZM19.4598 15.4266L17.3974 13.5017L8.11659 22.1638C7.54707 22.6953 7.54707 23.5571 8.11659 24.0887C8.6861 24.6202 9.60947 24.6202 10.179 24.0887L19.4598 15.4266Z" fill="black"/>
</svg>
